# xmcd
#
# Track frame offsets:
#	150
#	12140
#	23220
#	34602
#	48720
#	61575
#	80700
#	94265
#	105062
#	119772
#	134545
#	149172
#	164292
#	176995
#	191480
#
# Disc length: 2785 seconds
#
# Revision: 0
# Processed by: cddbd v1.5PL3 Copyright (c) Steve Scherf et al.
# Submitted via: dBpowerAMP V4.0
#
DISCID=d10adf0f
DTITLE=Varios - Los Mejores 15 Exitos Norteños Vol 2
DYEAR=1900
DGENRE=latin
TTITLE0=Me Rompieron Tu Retrato
TTITLE1=Ni Me Debes Ni Te Debo
TTITLE2=Mi Flor De Naranjo
TTITLE3=Vestida de Color de Rosa
TTITLE4=llegaste Tu
TTITLE5=Entierrenme Cantando
TTITLE6=El Viborón
TTITLE7=El Gavilán Pollero
TTITLE8=Maria Chuchena
TTITLE9=El Gallo de San Juan
TTITLE10=Que Equivocada Me Di
TTITLE11=Jacarandosa
TTITLE12=Como Dios Manda
TTITLE13=Ron y Coca Cola
TTITLE14=Playa Azul
EXTD=
EXTT0=
EXTT1=
EXTT2=
EXTT3=
EXTT4=
EXTT5=
EXTT6=
EXTT7=
EXTT8=
EXTT9=
EXTT10=
EXTT11=
EXTT12=
EXTT13=
EXTT14=
PLAYORDER=
